name C:\Users\u0150099\Documents\master_thesis\3dpredictsim\Results\debug\Fal_s1_mtj_sc_cspx10_oy_MTPm_k1_d01_MTJm_nl_MG_exp_table_d01_PF_Gefen2002_ls146_FDB_ig21.mot
datacolumns 130
datarows 4
range 1.05476596 1.08640894
endheader
time	pelvis_tilt	pelvis_list	pelvis_rotation	pelvis_tx	pelvis_ty	pelvis_tz	hip_flexion_l	hip_adduction_l	hip_rotation_l	hip_flexion_r	hip_adduction_r	hip_rotation_r	knee_angle_l	knee_angle_r	ankle_angle_l	ankle_angle_r	subtalar_angle_l	subtalar_angle_r	mtj_angle_l	mtj_angle_r	mtp_angle_l	mtp_angle_r	lumbar_extension	lumbar_bending	lumbar_rotation	arm_flex_l	arm_add_l	arm_rot_l	arm_flex_r	arm_add_r	arm_rot_r	elbow_flex_l	elbow_flex_r	pro_sup_l	pro_sup_r	glut_med1_l/activation	glut_med2_l/activation	glut_med3_l/activation	glut_min1_l/activation	glut_min2_l/activation	glut_min3_l/activation	semimem_l/activation	semiten_l/activation	bifemlh_l/activation	bifemsh_l/activation	sar_l/activation	add_long_l/activation	add_brev_l/activation	add_mag1_l/activation	add_mag2_l/activation	add_mag3_l/activation	tfl_l/activation	pect_l/activation	grac_l/activation	glut_max1_l/activation	glut_max2_l/activation	glut_max3_l/activation	iliacus_l/activation	psoas_l/activation	quad_fem_l/activation	gem_l/activation	peri_l/activation	rect_fem_l/activation	vas_med_l/activation	vas_int_l/activation	vas_lat_l/activation	med_gas_l/activation	lat_gas_l/activation	soleus_l/activation	tib_post_l/activation	flex_dig_l/activation	flex_hal_l/activation	tib_ant_l/activation	per_brev_l/activation	per_long_l/activation	per_tert_l/activation	ext_dig_l/activation	ext_hal_l/activation	FDB_l/activation	ercspn_l/activation	intobl_l/activation	extobl_l/activation	glut_med1_r/activation	glut_med2_r/activation	glut_med3_r/activation	glut_min1_r/activation	glut_min2_r/activation	glut_min3_r/activation	semimem_r/activation	semiten_r/activation	bifemlh_r/activation	bifemsh_r/activation	sar_r/activation	add_long_r/activation	add_brev_r/activation	add_mag1_r/activation	add_mag2_r/activation	add_mag3_r/activation	tfl_r/activation	pect_r/activation	grac_r/activation	glut_max1_r/activation	glut_max2_r/activation	glut_max3_r/activation	iliacus_r/activation	psoas_r/activation	quad_fem_r/activation	gem_r/activation	peri_r/activation	rect_fem_r/activation	vas_med_r/activation	vas_int_r/activation	vas_lat_r/activation	med_gas_r/activation	lat_gas_r/activation	soleus_r/activation	tib_post_r/activation	flex_dig_r/activation	flex_hal_r/activation	tib_ant_r/activation	per_brev_r/activation	per_long_r/activation	per_tert_r/activation	ext_dig_r/activation	ext_hal_r/activation	FDB_r/activation	ercspn_r/activation	intobl_r/activation	extobl_r/activation	
          1.05476596	         -2.92913514	         -1.15657615	          2.89935486	          1.40283873	          0.91192508	         -0.00469250	        -17.58649363	          3.15289637	          5.72051062	         28.84748984	          3.08326265	         -3.95404417	         -7.93294986	        -12.23925943	         -4.11486963	          8.27912810	         -9.23224963	         -4.46800320	          2.72763789	         -3.51720240	         26.27046201	         11.31784709	         -3.49899440	          0.51234462	         -1.32407187	          3.58108658	        -13.83973210	         19.31994531	         -4.17843360	        -13.49039505	          6.28381570	         31.25516302	         26.83552773	         86.51662706	         86.51662706	          0.32342758	          0.05613704	          0.05000038	          0.42898277	          0.13196059	          0.06743286	          0.05043530	          0.05000250	          0.05000078	          0.05879052	          0.08257025	          0.05000114	          0.05000092	          0.05000168	          0.05000487	          0.05000222	          0.49941920	          0.05000787	          0.05000578	          0.05000525	          0.05000366	          0.05000333	          0.49821531	          0.85560061	          0.05000036	          0.05000101	          0.05000035	          0.38993857	          0.09721435	          0.10359061	          0.07630596	          0.31318852	          0.46533276	          0.21423175	          0.65814487	          0.31814677	          0.53495675	          0.05000050	          0.16353967	          0.55891900	          0.05879068	          0.05000076	          0.09560782	          0.87417273	          0.05000007	          0.05000004	          0.05000007	          0.05000214	          0.05000058	          0.05878787	          0.05000036	          0.05000051	          0.05000203	          0.31952203	          0.07901848	          0.36173755	          0.06912493	          0.05850218	          0.10340324	          0.14357497	          0.14684538	          0.12879381	          0.16213236	          0.05878840	          0.05155447	          0.17067882	          0.05673565	          0.05879028	          0.14604109	          0.05191283	          0.05001172	          0.14562758	          0.05000304	          0.05000059	          0.05000021	          0.05000039	          0.05000037	          0.05000034	          0.05878957	          0.05878945	          0.05000021	          0.13591001	          0.06550164	          0.06912421	          0.41599304	          0.20721604	          0.33236345	          0.14419304	          0.46869120	          0.06690006	          0.27986972	          0.05879028	          0.07699330	          0.09854334	
          1.06531362	         -2.93017637	         -1.27077364	          3.15111296	          1.41903885	          0.91028979	         -0.00442503	        -17.81012749	          2.85091749	          5.55477454	         28.72299748	          3.45951129	         -3.87678386	         -9.20805497	        -12.75555026	         -4.70161929	          7.56352052	         -8.51924263	         -4.62831785	          2.12508383	         -3.06523546	         28.57402297	         10.71092206	         -3.36635637	          0.71841114	         -1.45322817	          3.38992612	        -13.80447849	         19.38770594	         -4.72756603	        -13.45849344	          5.67847145	         32.18655440	         26.09076190	         86.51662706	         86.51662706	          0.28958867	          0.05000019	          0.05000008	          0.36484578	          0.11223120	          0.05735108	          0.05000263	          0.05000056	          0.05000046	          0.05000088	          0.07022546	          0.13368495	          0.05000126	          0.05000147	          0.05000448	          0.05000869	          0.44446552	          0.05000985	          0.05000062	          0.05000243	          0.05000171	          0.05000195	          0.42372675	          0.78942468	          0.05000012	          0.05000043	          0.05000032	          0.36807158	          0.16393146	          0.16588719	          0.13340430	          0.26636338	          0.39576043	          0.18220175	          0.62267845	          0.31255237	          0.50064746	          0.05000002	          0.13908870	          0.47535446	          0.05000091	          0.05000009	          0.08461099	          0.84769628	          0.05000004	          0.05000049	          0.06668944	          0.05878962	          0.05878962	          0.05000026	          0.05878987	          0.05878979	          0.05875481	          0.27175011	          0.06720443	          0.31418003	          0.05879007	          0.05000065	          0.15548119	          0.17952448	          0.12489919	          0.14619235	          0.16717907	          0.05000046	          0.05006505	          0.14516115	          0.05000125	          0.05000165	          0.18934314	          0.07054393	          0.06383306	          0.46000249	          0.20754250	          0.09881378	          0.05000015	          0.05000029	          0.05000027	          0.05000022	          0.05000004	          0.05000014	          0.05000001	          0.11559003	          0.06657194	          0.05879105	          0.43975088	          0.27218573	          0.35059809	          0.12263494	          0.52691700	          0.05878989	          0.23802641	          0.05000051	          0.06548196	          0.08381009	
          1.07586128	         -2.92850260	         -1.39111818	          3.38815895	          1.43554738	          0.90869158	         -0.00412914	        -17.94640972	          2.53364462	          5.35901682	         28.58374217	          3.78720751	         -3.79030759	        -10.62425617	        -13.90759503	         -5.21324367	          6.47985136	         -7.68372873	         -4.84743980	          1.15642559	         -2.49099891	         31.18107281	         10.14890877	         -3.21420424	          0.92826788	         -1.57461399	          3.10574946	        -13.75612559	         19.30444887	         -5.30143457	        -13.44979018	          5.28958171	         33.17489590	         25.33924002	         86.51662706	         86.51662706	          0.24629254	          0.05000455	          0.05672204	          0.31029755	          0.09545157	          0.05000257	          0.05000434	          0.05000113	          0.05000205	          0.05000017	          0.05972643	          0.21975470	          0.11219529	          0.05879034	          0.05878781	          0.05879177	          0.46248393	          0.05000641	          0.05000370	          0.05044690	          0.05875589	          0.05878833	          0.36037499	          0.71616524	          0.05878928	          0.05878644	          0.05000062	          0.35390423	          0.17955474	          0.18314745	          0.14843745	          0.22653912	          0.33658993	          0.15580190	          0.52958120	          0.26582278	          0.42579557	          0.05000003	          0.11829342	          0.40428372	          0.05000005	          0.05000003	          0.07196298	          0.72095667	          0.05655855	          0.06912473	          0.06912476	          0.05000005	          0.05000013	          0.09455508	          0.05000021	          0.05000020	          0.05000020	          0.23112048	          0.05715666	          0.26720666	          0.05000035	          0.06188633	          0.13223615	          0.26543498	          0.26153386	          0.12433736	          0.19125048	          0.05000558	          0.08137004	          0.12345824	          0.05000179	          0.12315451	          0.22187828	          0.06976204	          0.06914244	          0.61445892	          0.17651287	          0.08404046	          0.06912566	          0.10187606	          0.10571162	          0.08451458	          0.06912600	          0.08071240	          0.06912468	          0.09830805	          0.07356309	          0.05000130	          0.55358237	          0.33995094	          0.29817986	          0.27457885	          0.47047205	          0.05000019	          0.20243883	          0.05000001	          0.05569169	          0.07127957	
          1.08640894	         -2.92489982	         -1.53680974	          3.61475794	          1.45232984	          0.90718758	         -0.00384129	        -18.01141233	          2.18624255	          5.11923119	         28.34069667	          4.03380086	         -3.62649014	        -12.12395359	        -15.20996921	         -5.67517892	          5.39031777	         -6.78875245	         -5.07839168	         -0.25686888	         -2.01928539	         34.19366834	          9.68980049	         -3.04256087	          1.16325667	         -1.68902638	          2.73852276	        -13.69957411	         19.14473253	         -5.89683945	        -13.46668369	          5.08740557	         34.21992369	         24.58522874	         86.51662706	         86.51662706	          0.31456570	          0.05000012	          0.05000004	          0.55280620	          0.08118075	          0.05000030	          0.05002514	          0.05000056	          0.05000028	          0.05878960	          0.05880767	          0.24892659	          0.09542131	          0.05000118	          0.05000202	          0.05000234	          0.50269622	          0.06913304	          0.05000096	          0.05000136	          0.05000083	          0.05000093	          0.30649526	          0.75370111	          0.05000008	          0.05000022	          0.05000009	          0.33640559	          0.15270945	          0.15576500	          0.12624452	          0.19266903	          0.28626608	          0.13252293	          0.45040294	          0.22607944	          0.36213452	          0.05000053	          0.10060765	          0.34383890	          0.05000122	          0.12297473	          0.06120385	          0.61316570	          0.07377764	          0.05878982	          0.05878986	          0.36993509	          0.34212547	          0.32748123	          0.44221800	          0.39175887	          0.31915455	          0.19656544	          0.12709745	          0.22725635	          0.09376295	          0.06912558	          0.11246551	          0.22574961	          0.22243183	          0.10574776	          0.23306033	          0.05000137	          0.06920545	          0.15949847	          0.18648916	          0.19778731	          0.23069959	          0.05933312	          0.05880511	          0.52259055	          0.15012243	          0.10272453	          0.05879062	          0.08664449	          0.08990659	          0.07187874	          0.05879090	          0.06864502	          0.05878978	          0.21338404	          0.06256491	          0.05878987	          0.66602860	          0.28912456	          0.34461698	          0.57407716	          0.63012129	          0.13126860	          0.49052773	          0.07020151	          0.09673142	          0.06062251	
